# xmcd
#
# Track frame offsets: 
#        150
#        17807
#        27732
#        41081
#        54368
#        63601
#        74238
#        88116
#        100736
#        113471
#        125363
#        137366
#        152209
#        166056
#        181053
#        196736
#        207076
#        220202
#        235695
#        247311
#        261193
#        277855
#        289990
#        303552
#        318274
#        333257
#
# Disc length: 4653 seconds
#
# Revision: 21
# Processed by: cddbd v1.5.2PL0 Copyright (c) Steve Scherf et al.
# Submitted via: ExactAudioCopyFreeDBPlugin 1.0
#
DISCID=7b122b1a
DTITLE=George Strait - 50 Number Ones [CD#01)
DYEAR=2004
DGENRE=Country
TTITLE0=I Hate Everything
TTITLE1=Fool Hearted Memory (from "Strait from the Heart", 1982)
TTITLE2=A Fire I Can't Put Out (from "Strait from the Heart", 1982)
TTITLE3=You Look So Good In Love (from "Right or Wrong", 1983)
TTITLE4=Right Or Wrong (from "Right or Wrong", 1983)
TTITLE5=Let's Fall To Pieces Together (from "Right or Wrong", 1983)
TTITLE6=Does Fort Worth Ever Cross Your Mind (from "Does Fort Worth Ev
TTITLE6=er Cross Your Mind", 1984)
TTITLE7=The Chair (from "Something Special", 1985)
TTITLE8=Nobody In His Right Mind Would've Left Her (from "#7", 1986)
TTITLE9=It Ain't Cool To Be Crazy About You (from "#7", 1986)
TTITLE10=Ocean Front Property (from "Ocean Front Property", 1987)
TTITLE11=All My Ex's Live In Texas (from "Ocean Front Property", 1987)
TTITLE12=Am I Blue (from "Ocean Front Property", 1987)
TTITLE13=Famous Last Words Of A Fool (from "If You Ain't Lovin' You Ai
TTITLE13=n't Livin'", 1988)
TTITLE14=Baby Blue (from "If You Ain't Lovin' You Ain't Livin'", 1988)
TTITLE15=If You Ain't Lovin' (You Ain't Livin') (from "If You Ain't Lo
TTITLE15=vin' You Ain't Livin'", 1988)
TTITLE16=Baby's Gotten Good At Goodbye (from "Beyond the Blue Neon", 1
TTITLE16=989)
TTITLE17=What's Going On In Your World (from "Beyond the Blue Neon", 1
TTITLE17=989)
TTITLE18=Ace In The Hole (from "Beyond the Blue Neon", 1989)
TTITLE19=Love Without End, Amen (from "Livin' It Up", 1990)
TTITLE20=I've Come To Expect It From You (from "Livin' It Up", 1990)
TTITLE21=If I Know Me (from "Chill of an Early Fall", 1991)
TTITLE22=You Know Me Better Than That (from "Chill of an Early Fall", 
TTITLE22=1991)
TTITLE23=The Chill Of An Early Fall (from "Chill of an Early Fall", 19
TTITLE23=91)
TTITLE24=So Much Like My Dad (from "Holding My Own", 1992)
TTITLE25=I Cross My Heart (from "Pure Country Soundtrack", 1992)
EXTD=
EXTT0=
EXTT1=
EXTT2=
EXTT3=
EXTT4=
EXTT5=
EXTT6=
EXTT7=
EXTT8=
EXTT9=
EXTT10=
EXTT11=
EXTT12=
EXTT13=
EXTT14=
EXTT15=
EXTT16=
EXTT17=
EXTT18=
EXTT19=
EXTT20=
EXTT21=
EXTT22=
EXTT23=
EXTT24=
EXTT25=
PLAYORDER=
